<svg width="65" height="165" viewBox="0 0 65 165" fill="none" xmlns="http://www.w3.org/2000/svg">
<path id="Vector" d="M16.6296 132.518C17.3463 132.978 18.0629 133.437 19.1079 134.155C23.1633 136.539 26.8904 138.666 30.6176 140.792C30.9468 141.028 31.2761 141.264 31.9438 141.726C33.9855 142.83 35.6887 143.709 37.392 144.587C37.6738 144.806 37.9556 145.024 38.542 145.47C39.8122 146.18 40.7779 146.663 41.7436 147.147C41.7436 147.147 41.9033 147.291 42.115 147.518C44.4693 148.915 46.6119 150.085 48.7545 151.255C48.7545 151.255 48.9195 151.409 49.1537 151.634C50.4509 152.557 51.4976 153.281 52.5802 153.946C54.6493 155.218 55.9173 154.811 55.9045 152.194C55.8552 142.109 55.7739 132.025 55.7046 121.94C55.741 120.516 55.7775 119.092 55.9397 117.13C56.115 116.366 56.2075 116.14 56.2082 115.913C56.3257 81.1778 56.4403 46.4422 56.5243 11.7065C56.5264 10.872 56.1831 10.0365 55.8729 8.61535C52.2155 10.6924 49.0016 12.4609 45.8433 14.3236C40.2713 17.6096 34.7332 20.9532 29.1809 24.2727C29.1809 24.2727 29.2595 24.3134 28.9974 24.2981C28.1314 24.7132 27.5276 25.1435 26.9238 25.5738C26.9238 25.5738 26.6738 25.6135 26.3273 25.6984C22.886 27.6206 19.7912 29.4578 16.6964 31.2951C16.314 31.4172 15.9315 31.5394 15.1768 31.8209C13.7867 32.6714 12.7688 33.3624 11.7509 34.0534C11.4046 34.2096 11.0584 34.3658 10.3756 34.6622C9.89969 35.0009 9.76037 35.1994 9.62105 35.398C9.62105 35.398 9.70393 35.4783 9.4812 35.4557C9.07378 35.61 8.88911 35.787 8.70443 35.9639C8.46268 36.0346 8.22092 36.1053 7.64455 36.2574C7.17212 36.511 7.0343 36.6833 6.89648 36.8555C6.89648 36.8555 6.94553 36.8839 6.67921 36.8785C2.1487 39.0719 -1.74444 42.2869 -7 41.771C-7 39.4278 -7 37.0846 -7 34.4221C0.723444 29.8741 8.48134 25.7069 16.1623 21.4024C27.796 14.8828 39.3125 8.15178 51.002 1.73508C58.4881 -2.3743 64.2664 1.04384 64.3638 9.57882C64.507 22.1218 64.4349 34.668 64.366 47.2124C64.2831 62.3094 64.056 77.4055 63.9846 92.5025C63.8923 112.016 63.9049 131.529 63.8318 151.042C63.8248 152.889 63.663 154.758 63.3426 156.575C62.1815 163.163 57.7111 165.727 51.7055 162.905C47.1024 160.742 42.74 158.052 38.3309 155.493C24.0012 147.176 9.70044 138.808 -4.61814 130.471C-5.21051 130.126 -5.87022 129.897 -6.74928 129.611C-7 127.264 -7 124.921 -6.69989 122.22C-3.59802 122.615 -0.796263 123.369 2.0055 124.123C2.0055 124.123 2.18404 124.27 2.42623 124.484C7.32215 127.305 11.9759 129.911 16.6296 132.518Z" fill="#F6BF18"/>
</svg>
