<svg width="47" height="69" viewBox="0 0 47 69" fill="none" xmlns="http://www.w3.org/2000/svg">
<path id="Vector" d="M8.80692 2.90007C20.3617 -3.48498 33.1347 0.999298 36.9326 13.1492C40.3895 24.2082 43.2775 35.4705 45.8533 46.7715C47.9268 55.8693 41.1055 65.4613 31.7269 67.7169C21.9978 70.0568 11.7835 64.7118 9.15555 55.6146C6.1948 45.3652 3.33634 35.0783 0.787089 24.7206C-1.37795 15.9241 0.805607 8.39832 8.80692 2.90007ZM34.014 33.2886C32.5929 28.1486 31.3012 22.9673 29.6846 17.8895C29.0696 15.958 27.9214 14.094 26.6451 12.4954C23.438 8.47801 19.1935 7.21335 15.7216 8.94975C10.0766 11.773 7.21395 16.6729 8.54551 21.8231C10.8382 30.6907 13.2688 39.524 15.7735 48.3342C16.4 50.5379 17.2197 52.8102 18.4963 54.678C20.7143 57.9232 23.7184 60.554 27.9698 60.1313C33.9588 59.5358 38.9728 52.0539 37.5093 46.2592C36.4595 42.1027 35.2791 37.9791 34.014 33.2886Z" fill="#FBBC04"/>
</svg>
