<svg width="102" height="103" viewBox="0 0 102 103" fill="none" xmlns="http://www.w3.org/2000/svg">
<path id="Vector" d="M67.5705 15.9962C76.3965 18.4055 85.2363 20.7654 94.0446 23.238C103.004 25.7533 104.424 31.0545 97.8682 37.651C87.4035 48.1807 76.8597 58.6317 66.0271 69.4238C64.0191 71.578 62.3333 73.4245 60.6462 75.2477C60.6449 75.2244 60.6913 75.2198 60.4658 75.3122C60.139 75.708 60.0376 76.0115 59.7996 76.4809C57.6685 78.5137 55.6742 80.3809 53.4587 82.3262C53.1581 82.8151 53.0787 83.2259 52.9938 83.6153C52.9882 83.5941 53.0318 83.5885 53.0318 83.5885C52.0278 84.2195 50.8726 84.6962 50.0448 85.5071C45.4007 90.0569 40.8998 94.7535 36.2271 99.273C30.4344 104.876 25.0155 103.402 22.9147 95.605C15.4933 68.0604 8.13164 40.4997 0.823562 12.9248C0.238072 10.7156 0.0414556 8.35546 0.00180022 6.05961C-0.0785737 1.40773 2.53569 -0.807446 7.17814 0.267065C15.3058 2.1482 23.3769 4.27978 31.4484 6.39513C40.0857 8.65873 48.6961 11.0248 57.7958 13.5313C61.3724 14.4763 64.4714 15.2362 67.5705 15.9962ZM15.3265 40.6971C20.1121 58.5203 24.8976 76.3435 29.6256 93.9525C51.0047 72.5765 72.004 51.5801 93.3857 30.2015C64.7128 22.5057 35.963 14.7892 6.26173 6.8173C9.40443 18.5118 12.3103 29.325 15.3265 40.6971Z" fill="#4D87E7"/>
</svg>
