<svg width="126" height="154" viewBox="0 0 126 154" fill="none" xmlns="http://www.w3.org/2000/svg">
<path id="Vector" d="M175.521 131.872C169.796 136.626 164.612 142.33 158.244 145.954C139.521 156.607 120.276 155.598 101.702 145.435C79.9923 133.557 58.7193 120.884 37.0717 108.89C23.9719 101.632 11.4567 94.029 5.16748 79.459C1.10556 70.0488 -0.604384 60.3956 0.189325 50.0828C0.83188 41.7338 3.39443 34.2714 7.43539 27.08C15.8559 12.0947 29.1232 4.35169 45.4919 0.98914C62.8689 -2.58068 77.6816 4.0423 92.1601 12.3699C108.96 22.0329 125.943 31.3818 142.668 41.1718C151.52 46.3532 160.559 51.4811 168.497 57.8914C178.846 66.2475 183.965 78.1382 185.353 91.2109C186.243 99.5996 186.174 108.188 182.445 116.952C180.007 122.398 177.764 127.135 175.521 131.872ZM175.535 100.361C175.583 81.6431 166.667 67.9661 150.941 58.8645C124.968 43.8324 98.7981 29.1257 72.4217 14.8154C67.2243 11.9957 60.6494 10.0899 54.8274 10.3543C38.1556 11.1113 25.3881 19.4085 16.4463 33.5875C6.25994 49.7398 9.7077 70.4133 21.2243 83.4139C28.8302 91.9998 38.8102 96.8806 48.4052 102.401C68.1125 113.74 87.7772 125.173 107.814 135.906C114.235 139.346 121.646 142.039 128.826 142.713C140.461 143.805 150.672 139.135 159.482 131.162C168.473 123.026 174.219 113.411 175.535 100.361Z" fill="#DF4B40"/>
</svg>
