<svg width="83" height="180" viewBox="0 0 83 180" fill="none" xmlns="http://www.w3.org/2000/svg">
<path id="Vector" d="M35.684 56.543C43.7254 46.5394 51.7551 36.5263 59.812 26.5352C66.7063 17.9857 73.6319 9.46145 80.7606 0.737584C82.2338 2.24773 83.49 3.9463 84.9346 5.89939C74.4665 19.4459 63.7837 32.7168 53.1605 46.0351C38.8466 63.9805 24.5782 81.9621 10.2928 99.9301C9.85979 100.475 9.43928 101.031 9.03834 101.599C6.8543 104.696 7.00037 105.969 9.87637 108.26C30.2787 124.512 50.7096 140.728 71.0818 157.018C78.2312 162.734 85.2413 168.625 92.5474 174.604C90.8958 176.165 89.0118 177.558 86.8712 179.141C85.7777 178.289 85.1001 177.048 84.0809 176.235C58.4399 155.773 32.7595 135.361 7.10012 114.923C5.3794 113.552 3.53482 112.235 2.15742 110.556C-0.851795 106.89 -0.549954 102.346 2.5738 98.4229C12.1029 86.4548 21.6135 74.4721 31.4253 62.0986C32.3093 60.9182 32.8993 60.1342 33.6821 59.1809C34.4779 58.1888 35.0809 57.3659 35.684 56.543Z" fill="#E04B40"/>
</svg>
