<svg width="48" height="42" viewBox="0 0 48 42" fill="none" xmlns="http://www.w3.org/2000/svg">
<path id="Vector" d="M32.2506 -4.87982C35.2186 -2.90934 38.0452 -1.15925 40.4198 1.072C48.2518 8.43106 49.0043 17.6124 45.7098 27.0619C42.3897 36.5846 34.533 40.6963 24.9219 41.1037C15.4552 41.5051 8.04199 37.2637 3.54957 28.9068C-2.80691 17.0824 2.5081 2.10973 14.6582 -3.41159C15.2126 -3.66353 15.7173 -4.02507 16.2414 -4.60769C21.4591 -4.87982 26.6806 -4.87982 32.2506 -4.87982ZM9.05879 21.6236C11.7972 29.0546 19.2799 34.5296 25.5424 33.6845C32.7888 32.7067 39.3495 25.9512 40.0091 18.7882C40.5755 12.6369 34.8278 5.08286 28.3106 2.73898C18.5761 -0.762014 6.11907 10.9965 9.05879 21.6236Z" fill="#3DA65B"/>
</svg>
