<svg width="84" height="85" viewBox="0 0 84 85" fill="none" xmlns="http://www.w3.org/2000/svg">
<path id="Vector" d="M77.7545 64.4402C68.0105 79.2486 54.2302 85.5335 37.1498 83.7856C20.5988 82.0918 9.0781 72.9437 2.89642 57.4855C-7.11738 32.4446 10.0002 3.33426 36.3203 0.800371C52.7144 -0.777925 66.9466 4.04206 76.3455 18.1308C86.1922 32.8907 86.3723 48.5612 77.7545 64.4402ZM16.7753 65.8688C29.2512 78.9412 46.9044 81.1442 60.9304 71.3793C76.1437 60.7878 81.4025 42.8252 73.3173 27.4081C66.6049 14.6086 55.9129 6.86992 41.2017 7.28005C26.2653 7.69651 15.6288 15.9183 9.67198 29.4184C3.79891 42.7286 7.06628 54.8082 16.7753 65.8688Z" fill="#DF4B40"/>
</svg>
