<svg width="144" height="174" viewBox="0 0 144 174" fill="none" xmlns="http://www.w3.org/2000/svg">
<path id="Vector" d="M0.621418 130.531C0.712898 129.113 0.804355 127.695 0.954828 125.808C0.99025 125.222 0.966636 125.104 0.943042 124.987C0.992314 124.674 1.04161 124.362 1.09622 123.645C1.06705 123.126 1.03254 123.011 0.998015 122.897C1.05718 122.378 1.11632 121.858 1.3263 120.872C1.67228 118.437 1.86743 116.468 2.06258 114.5C2.23303 113.544 2.40346 112.588 2.70381 111.131C3.37144 107.743 3.90917 104.856 4.44692 101.969C4.55897 101.552 4.67104 101.136 4.94495 100.292C5.83964 97.0814 6.57249 94.2975 7.30533 91.5135C7.58057 90.7583 7.85584 90.0031 8.31645 88.8343C11.4098 81.5864 14.3177 74.752 17.2257 67.9177C17.2257 67.9177 17.2027 67.8183 17.3952 67.7279C18.8467 65.1494 20.1056 62.6612 21.3645 60.1731C21.5015 59.9857 21.6384 59.7983 22.0321 59.4618C22.4714 59.1764 22.5321 58.9985 22.4711 58.7789C22.4711 58.7789 22.693 58.5411 22.9145 58.2422C23.3218 57.5085 23.5077 57.0737 23.6937 56.6389C23.6937 56.6389 23.9258 56.4919 24.1446 56.2602C35.0744 39.9791 48.2929 26.4047 64.374 15.6949C68.7823 12.7591 73.3508 10.0637 77.8458 7.25803C77.8458 7.25803 77.7491 7.2425 78.045 7.2408C83.4437 5.08533 88.4332 2.58837 93.6758 0.858177C101.578 -1.74988 107.574 1.70276 109.947 9.63539C112.389 17.7975 114.849 25.9545 117.301 34.1138C117.301 34.1138 117.199 34.2167 117.237 34.5731C118.056 37.7162 118.806 40.5116 119.621 43.2878C122.781 54.0485 125.961 64.8032 129.134 75.5601C129.177 75.8677 129.22 76.1752 129.349 76.9025C129.587 77.5486 129.738 77.775 129.89 78.0015C129.876 78.2274 129.861 78.4534 129.941 79.0956C132.082 86.3203 134.128 93.129 136.174 99.9376C136.21 100.247 136.246 100.557 136.352 101.29C136.569 101.936 136.717 102.159 136.865 102.382C136.865 102.382 136.788 102.545 136.846 102.89C137.785 105.981 138.666 108.726 139.547 111.472C139.588 111.899 139.63 112.326 139.772 113.21C141.46 120.337 144.893 126.775 142.404 133.953C142.404 133.953 142.501 133.997 142.277 134.088C140.162 137.759 136.865 139.324 133.201 140.374C122.84 143.344 112.475 146.301 102.122 149.298C85.8682 154.005 69.6224 158.74 53.1469 163.453C52.3719 163.676 51.8229 163.91 51.0058 164.122C45.5571 165.67 40.3765 167.24 34.9648 168.811C34.438 168.894 34.1423 168.978 33.5849 169.047C27.746 170.47 22.2171 172.148 16.5788 173.281C10.5937 174.484 5.03708 170.907 3.80162 164.992C2.53244 158.916 1.83769 152.72 0.904515 146.264C0.791038 144.079 0.664605 142.208 0.647458 140.045C0.687113 138.304 0.617482 136.856 0.547852 135.408C0.608483 134.895 0.669093 134.383 0.754893 133.352C0.727172 132.065 0.674285 131.298 0.621418 130.531ZM75.4162 17.6815C61.5929 25.8716 49.4617 36.1517 39.4272 48.625C13.3152 81.083 2.85888 117.917 9.58778 159.304C10.5823 165.421 13.6555 167.303 19.595 165.591C44.1204 158.525 68.6573 151.499 93.1829 144.433C105.668 140.836 118.169 137.293 130.6 133.514C136.122 131.836 137.046 129.592 135.462 124.076C125.918 90.855 116.393 57.6287 106.856 24.406C105.673 20.2836 104.628 16.1097 103.202 12.0715C101.61 7.562 98.7578 6.26708 94.5712 8.20903C88.2647 11.1344 82.091 14.3462 75.4162 17.6815Z" fill="#3CA65A"/>
</svg>
