<svg width="66" height="104" viewBox="0 0 66 104" fill="none" xmlns="http://www.w3.org/2000/svg">
<path id="Vector" d="M49.1084 89.2742C49.1084 89.2742 49.085 89.1121 49.1161 88.8877C49.392 87.9222 49.6369 87.1811 49.8818 86.44C49.905 86.2569 49.9282 86.0738 50.0026 85.6404C50.1455 85.2609 50.2372 85.1317 50.3289 85.0025C51.3718 80.8709 52.3707 76.7277 53.4654 72.6099C57.4299 57.6983 61.4318 42.7967 65.4083 27.8884C66.7165 22.9836 65.3019 20.6533 60.4399 19.3568C43.3207 14.792 26.2112 10.1907 9.09846 5.6018C8.11886 5.33911 7.14292 5.06282 5.87506 4.68186C4.50663 4.34215 3.42186 4.14049 2.35138 3.88014C-2.93188 2.59527 -8.21137 1.29491 -13.4922 0C-13.6765 0.0451005 -13.8609 0.090201 -14.2785 0.167708C-14.5118 0.200127 -14.7124 0.170616 -14.7124 0.170616C-14.8912 0.227084 -15.07 0.283551 -15.4731 0.465319C-16.6026 1.76058 -17.5079 2.93053 -18.4132 4.10049C-20.0265 10.2197 -21.628 16.342 -23.2554 22.4575C-28.0359 40.4227 -32.8587 58.3768 -37.5918 76.3545C-38.8098 80.9812 -37.3321 83.2033 -32.7629 84.4121C-26.7028 86.0153 -20.661 87.6876 -14.3036 89.3841C-12.8034 89.8095 -11.611 90.1811 -10.4187 90.5527C-10.2627 90.5559 -10.1067 90.5592 -9.68856 90.6233C-5.09772 91.8952 -0.768982 93.1063 3.55974 94.3174C3.55974 94.3174 3.53148 94.3089 3.71111 94.3015C6.30436 94.9854 8.71798 95.6767 11.1316 96.3679C11.2906 96.376 11.4497 96.3841 11.8513 96.4246C12.3277 96.5634 12.5615 96.6699 12.7953 96.7764C12.7953 96.7764 12.9411 96.7529 13.1612 96.7823C14.2489 97.0757 15.1164 97.3398 15.984 97.6039C16.1715 97.6145 16.3589 97.6251 16.8048 97.6716C17.2822 97.8168 17.5013 97.9261 17.7204 98.0354C17.8946 98.0572 18.0687 98.079 18.4689 98.1483C18.8069 98.2755 18.919 98.3551 19.031 98.4347C19.1876 98.4491 19.3442 98.4635 19.7416 98.5054C20.2208 98.6363 20.4591 98.7397 20.6975 98.8431C20.8539 98.8617 21.0104 98.8803 21.399 98.9356C21.8539 99.0726 22.0767 99.1729 22.2995 99.2732C22.4739 99.2971 22.6484 99.3211 23.0551 99.3827C23.4824 99.5188 23.6775 99.6171 23.8726 99.7155C24.0619 99.7375 24.2512 99.7595 24.6742 99.8237C25.0503 99.8948 25.1547 99.9737 25.2211 100.103C25.3836 100.11 25.5461 100.116 25.9371 100.173C26.2861 100.315 26.4066 100.407 26.5271 100.499C26.5271 100.499 26.6451 100.455 26.8557 100.483C27.9685 100.81 28.8706 101.11 29.7727 101.41C29.9213 101.412 30.0698 101.414 30.4571 101.419C32.4332 101.938 34.1704 102.455 35.9076 102.971C36.0864 102.992 36.2653 103.013 36.7259 103.069C37.7946 103.34 38.5814 103.575 39.3682 103.81C39.7647 103.831 40.1611 103.853 40.8613 103.87C41.5904 103.838 42.0159 103.809 42.4413 103.781C42.4413 103.781 42.4724 103.802 42.5009 103.719C42.6431 103.539 42.772 103.51 42.9162 103.55C43.0693 103.498 43.2224 103.447 43.5743 103.269C44.6206 101.795 45.7483 100.544 46.2579 99.0783C47.3743 95.868 48.1774 92.5489 49.1084 89.2742ZM32.2922 16.0691C41.1599 18.4337 50.0265 20.8027 58.896 23.1602C61.6558 23.8937 62.0799 24.5325 61.3477 27.2739C58.1449 39.2662 54.9195 51.2526 51.7026 63.2411C48.6649 74.5619 45.6392 85.886 42.5806 97.2012C41.9304 99.6063 41.2497 99.9823 38.854 99.3557C34.6472 98.2555 30.4535 97.1053 26.2531 95.9807C7.05425 90.8406 -12.1465 85.7074 -31.3424 80.5566C-33.7763 79.9035 -34.1818 79.0842 -33.5159 76.6132C-30.0355 63.6985 -26.5587 50.7828 -23.0874 37.8656C-20.2957 27.4776 -17.5406 17.0798 -14.7082 6.70289C-14.0143 4.16085 -13.3304 3.83787 -10.8215 4.509C3.44368 8.32493 17.7039 12.1594 32.2922 16.0691Z" fill="#4D87E8"/>
</svg>
