<svg width="73" height="72" viewBox="0 0 73 72" fill="none" xmlns="http://www.w3.org/2000/svg">
<path id="Vector" d="M9.57911 51.7147C9.54884 51.4009 9.51856 51.087 9.42774 50.3016C6.73412 40.6347 4.07535 31.4467 1.47787 22.2414C-0.0136925 16.9554 0.935523 15.3594 6.03007 13.8866C7.19384 13.5502 8.24251 12.8156 9.34414 12.2642C9.47165 12.4385 9.64317 12.5183 10.213 12.5212C23.131 8.93865 35.6825 5.29471 48.2674 1.77024C51.3113 0.917824 54.4531 -0.499723 57.5928 1.616C57.5928 1.616 57.6261 1.55461 57.6161 1.82415C58.2978 3.77241 58.9894 5.45112 59.681 7.12983C59.83 7.92183 59.9791 8.71378 60.2546 9.98075C62.0069 15.8537 63.6327 21.2516 65.2584 26.6496C65.3857 27.448 65.5129 28.2465 65.7749 29.5158C67.079 33.7565 68.2483 37.5264 69.4176 41.2963C69.433 41.6101 69.4484 41.9239 69.5332 42.686C70.0034 44.15 70.4043 45.1657 70.8051 46.1814C70.8349 46.4949 70.8646 46.8084 70.9758 47.5976C71.278 48.9708 71.5025 49.8674 71.7188 50.766C72.9313 55.8054 72.3679 56.8754 67.5313 58.3605C63.8869 59.4795 60.2083 60.487 56.556 61.5807C47.3883 64.3262 38.2269 67.0924 29.063 69.8503C28.7486 69.8604 28.4343 69.8706 27.6403 69.944C25.3671 70.4761 23.5878 71.0107 21.7773 71.4008C16.7998 72.473 15.7296 71.7982 14.2535 66.927C12.715 61.8503 11.1388 56.785 9.57911 51.7147ZM38.2697 13.175C29.7028 15.6255 21.1469 18.1154 12.5615 20.4992C10.3852 21.1035 9.97045 22.0617 10.6111 24.256C13.9532 35.702 17.0891 47.2082 20.3588 58.6756C21.6179 63.0917 21.7068 63.1204 26.0324 61.8858C37.2805 58.6753 48.4853 55.3068 59.7756 52.2537C62.6199 51.4846 63.1838 50.379 62.4038 47.6948C59.0102 36.0164 55.7203 24.3071 52.4891 12.5826C51.8618 10.3064 50.7915 9.5005 48.4878 10.2147C45.2819 11.2087 42.0341 12.0678 38.2697 13.175Z" fill="#3DA65B"/>
</svg>
